{
	"images":[{
		"uri":"data:image/jpeg;base64,"
	}],
	"asset":{
		"version":"2.0",
		"generator":"Created using the official Cinema 4D glTF Exporter 1.000x284978"
	},
	"scenes":[{
		"nodes":[0]
	}],
	"nodes":[{
		"name":"Coin",
		"mesh":0
	}],
	"meshes":[{
		"name":"Coin",
		"primitives":[{
			"attributes":{
				"POSITION":1,
				"NORMAL":2,
				"TEXCOORD_0":3
			},
			"indices":0,
			"material":0
		}]
	}],
	"accessors":[{
		"max":[451],
		"bufferView":0,
		"type":"SCALAR",
		"byteOffset":0,
		"componentType":5123,
		"count":1620,
		"min":[0]
	},
	{
		"max":[51.71200180053711,
		51.428714752197269,
		4.451476097106934],
		"bufferView":1,
		"type":"VEC3",
		"byteOffset":0,
		"componentType":5126,
		"count":452,
		"min":[-51.71200180053711,
		-51.428714752197269,
		-4.451476097106934]
	},
	{
		"max":[0.9993868470191956,
		0.9975718855857849,
		1.0],
		"bufferView":1,
		"type":"VEC3",
		"byteOffset":12,
		"componentType":5126,
		"count":452,
		"min":[-0.9993868470191956,
		-0.9975718855857849,
		-1.0]
	},
	{
		"max":[0.9733651876449585,
		0.9738286733627319],
		"bufferView":1,
		"type":"VEC2",
		"byteOffset":24,
		"componentType":5126,
		"count":452,
		"min":[0.0423581600189209,
		0.04282180964946747]
	}],
	"bufferViews":[{
		"buffer":0,
		"byteOffset":0,
		"byteLength":3240,
		"target":34963
	},
	{
		"buffer":0,
		"byteOffset":3240,
		"byteLength":14464,
		"target":34962,
		"byteStride":32
	}],
	"buffers":[{
		"uri":"data:application/octet-stream;base64,",
		"byteLength":17704
	}],
	"samplers":[{
		"magFilter":9729,
		"minFilter":9729,
		"wrapS":10497,
		"wrapT":10497
	}],
	"textures":[{
		"sampler":0,
		"source":0
	}],
	"materials":[{
		"pbrMetallicRoughness":{
			"baseColorTexture":{
				"index":0
			},
			"baseColorFactor":[0.8,
			0.8,
			0.8,
			1.0],
			"metallicFactor":1.0,
			"roughnessFactor":0.18
		},
		"emissiveFactor":[0.0,
		0.0,
		0.0],
		"alphaMode":"OPAQUE",
		"doubleSided":false,
		"name":"Mat.1"
	}]
}