{
	"bufferViews":[{
		"byteLength":30000,
		"buffer":0,
		"byteOffset":0,
		"target":34963
	},
	{
		"byteLength":83232,
		"buffer":0,
		"byteOffset":30000,
		"target":34962,
		"byteStride":32
	}],
	"asset":{
		"version":"2.0",
		"generator":"Created using the official Cinema 4D glTF Exporter 1.000x284978"
	},
	"scenes":[{
		"nodes":[0]
	}],
	"nodes":[{
		"name":"Landscape.1",
		"mesh":0
	}],
	"meshes":[{
		"name":"Landscape.1",
		"primitives":[{
			"attributes":{
				"POSITION":1,
				"NORMAL":2,
				"TEXCOORD_0":3
			},
			"indices":0,
			"material":0
		}]
	}],
	"accessors":[{
		"bufferView":0,
		"type":"SCALAR",
		"componentType":5123,
		"count":15000,
		"byteOffset":0,
		"min":[0],
		"max":[2600]
	},
	{
		"bufferView":1,
		"type":"VEC3",
		"componentType":5126,
		"count":2601,
		"byteOffset":0,
		"min":[-5.0,
		0.0,
		-5.0],
		"max":[5.0,
		0.452366441488266,
		5.0]
	},
	{
		"bufferView":1,
		"type":"VEC3",
		"componentType":5126,
		"count":2601,
		"byteOffset":12,
		"min":[-0.3521844148635864,
		0.9099627137184143,
		-0.24002714455127717],
		"max":[0.4088645875453949,
		1.0,
		0.31824395060539248]
	},
	{
		"bufferView":1,
		"type":"VEC2",
		"componentType":5126,
		"count":2601,
		"byteOffset":24,
		"min":[0.00032589671900495887,
		0.0003255739575251937],
		"max":[0.9990243911743164,
		0.9990243911743164]
	}],
	"buffers":[{
		"uri":"data:application/octet-stream;base64,",
		"byteLength":113232
	}],
	"images":[{
		"uri":"data:image/jpeg;base64,"
	}],
	"samplers":[{
		"magFilter":9729,
		"minFilter":9729,
		"wrapS":10497,
		"wrapT":10497
	}],
	"textures":[{
		"sampler":0,
		"source":0
	}],
	"materials":[{
		"pbrMetallicRoughness":{
			"baseColorTexture":{
				"index":0
			},
			"baseColorFactor":[0.8,
			0.8,
			0.8,
			1.0],
			"metallicFactor":1.0,
			"roughnessFactor":1.0
		},
		"emissiveFactor":[0.0,
		0.0,
		0.0],
		"alphaMode":"OPAQUE",
		"doubleSided":false,
		"name":"Landscape"
	}]
}